<?xml version="1.0" standalone="no"?>
<!DOCTYPE svg PUBLIC "-//W3C//DTD SVG 20010904//EN"
 "http://www.w3.org/TR/2001/REC-SVG-20010904/DTD/svg10.dtd">
<svg version="1.0" xmlns="http://www.w3.org/2000/svg"
 width="738.000000pt" height="738.000000pt" viewBox="0 0 738.000000 738.000000"
 preserveAspectRatio="xMidYMid meet">
<metadata>
Created by potrace 1.14, written by Peter Selinger 2001-2017
</metadata>
<g transform="translate(0.000000,738.000000) scale(0.100000,-0.100000)"
fill="#000000" stroke="none">
<path d="M3490 7370 c-19 -5 -48 -11 -65 -15 -41 -9 -145 -57 -145 -68 0 -4
-4 -6 -9 -3 -19 12 -173 -128 -235 -214 -36 -51 -91 -166 -112 -235 -10 -33
-22 -62 -25 -65 -4 -3 -239 -5 -523 -5 -284 0 -516 -2 -516 -5 0 -3 -12 -6
-27 -6 -40 -2 -114 -13 -123 -19 -4 -3 -25 -7 -46 -11 -22 -3 -46 -10 -55 -15
-9 -4 -19 -5 -23 -2 -3 3 -6 0 -6 -7 0 -7 -3 -11 -6 -7 -4 3 -19 0 -35 -9 -16
-8 -29 -12 -29 -10 0 5 -68 -26 -127 -57 -18 -10 -36 -17 -39 -16 -4 0 -10 -3
-13 -8 -3 -5 -27 -21 -53 -36 -27 -15 -48 -32 -48 -38 0 -6 -5 -7 -10 -4 -5 3
-10 2 -10 -2 0 -5 -12 -16 -27 -25 -16 -9 -44 -31 -63 -48 -19 -18 -48 -44
-65 -58 -51 -46 -160 -175 -213 -254 -128 -190 -242 -468 -268 -653 -3 -16 -7
-41 -10 -55 -3 -13 -8 -49 -11 -80 -3 -30 -7 -64 -8 -75 -1 -11 -3 -69 -4
-128 -1 -77 -5 -109 -14 -111 -6 -2 -41 -9 -77 -15 -155 -28 -301 -144 -377
-301 -73 -151 -73 -147 -70 -840 3 -681 1 -653 71 -796 36 -72 147 -204 172
-204 8 0 14 -4 14 -8 0 -24 138 -79 225 -89 28 -3 51 -6 51 -7 1 0 4 -71 8
-156 3 -85 8 -168 10 -185 15 -99 49 -244 80 -338 35 -107 131 -319 148 -325
4 -2 8 -8 8 -13 0 -28 153 -229 241 -318 9 -9 41 -50 71 -91 30 -41 77 -99
104 -128 l49 -54 5 -463 5 -463 30 -43 c17 -24 45 -52 63 -62 37 -22 110 -30
130 -15 6 6 12 7 12 3 0 -4 6 -2 14 4 11 9 15 6 19 -17 7 -34 36 -72 57 -75 8
-2 20 -5 25 -9 24 -15 29 -10 694 640 l166 162 245 0 c1157 0 2929 7 2945 11
11 4 38 10 60 14 44 9 53 11 60 15 3 1 8 3 13 4 91 20 290 118 372 183 160
126 294 276 369 413 95 175 164 364 187 515 7 47 16 89 39 170 35 122 46 177
60 290 11 89 13 118 14 227 1 95 3 107 19 106 56 -3 166 31 237 74 66 39 163
141 199 209 31 58 62 143 74 199 4 19 7 312 7 650 0 571 -1 620 -19 685 -27
103 -81 199 -150 269 -101 102 -175 142 -293 159 l-73 11 -1 90 c-1 151 -10
251 -31 351 -5 28 -14 69 -19 93 -18 89 -85 271 -139 378 -132 260 -326 478
-554 625 -39 24 -73 43 -77 42 -4 -1 -13 4 -19 12 -7 8 -16 15 -21 15 -5 0
-37 13 -71 28 -61 27 -176 66 -228 76 -14 3 -36 7 -50 10 -14 3 -42 7 -62 10
-21 2 -42 7 -48 11 -5 3 -10 2 -10 -4 0 -7 -9 -7 -22 -3 -13 5 -241 8 -508 7
-267 -1 -490 1 -497 3 -6 2 -14 20 -18 40 -4 20 -16 57 -27 82 -11 25 -27 61
-36 80 -18 40 -66 114 -98 150 -58 66 -72 79 -114 112 -61 49 -142 92 -220
119 -56 19 -90 22 -255 24 -104 2 -206 -1 -225 -5z"/>
</g>
</svg>
